# xmcd
#
# Track frame offsets:
#	150
#	13194
#	33082
#	47512
#	58978
#	71896
#	88426
#	104066
#	123683
#	136275
#	153297
#	170275
#	184029
#	198291
#	212370
#	227203
#
# Disc length: 3263 seconds
#
# Revision: 3
# Processed by: cddbd v1.5.2PL0 Copyright (c) Steve Scherf et al.
# Submitted via: audiograbber 1.83.01
#
DISCID=e60cbd10
DTITLE=Various Artist - KB1622922
DYEAR=1900
DGENRE=Karaoke
TTITLE0=Patsy Cline - Crazy
TTITLE1=Alabama - Angels Among Us
TTITLE2=Dolly Parton - I Will Always Love You
TTITLE3=Willie Nelson - On The Road Again
TTITLE4=Tammy Wynette - Stand By Your Man
TTITLE5=Randy Travis - Forever And Forever Amen
TTITLE6=Steve Wariner - Small Town Girl
TTITLE7=The Judds - Grandpa
TTITLE8=Hank Williams Jr - Born To Boogie
TTITLE9=Anne Murray - You Needed Me
TTITLE10=Kenny Rogers - The Gambler
TTITLE11=Patsy Cline - I Fall To Pieces
TTITLE12=Ronnie Milsap - Snap Your Fingers
TTITLE13=Emmylou Harris - Two More Bottles Of Wine
TTITLE14=George Strait - Ocean Front Property
TTITLE15=Tanya Tucker - Some Kind Of Trouble
EXTD=accurate info
EXTT0=
EXTT1=
EXTT2=
EXTT3=
EXTT4=
EXTT5=
EXTT6=
EXTT7=
EXTT8=
EXTT9=
EXTT10=
EXTT11=
EXTT12=
EXTT13=
EXTT14=
EXTT15=
PLAYORDER=
